<svg id="Layer_1" height="512" viewBox="0 0 512 512" width="512" xmlns="http://www.w3.org/2000/svg" data-name="Layer 1"><path d="m327.83 208.38 44.06 69.62 129.11-29.955z" fill="#adb3bc"/><path d="m11 248.045 129.11 29.955 44.06-69.62z" fill="#adb3bc"/><path d="m256 304.02 160.01 108.98 84.99-164.955z" fill="#b9c0c9"/><path d="m416.01 413h-320.02l160.01-108.98z" fill="#ccd3df"/><path d="m372.89 277-55.7-84.82-178.08 84.82-.1.46 116.99 26.56 116.99-26.56z" fill="#c5cad1"/><path d="m256 99-116.89 178 178.08-84.82z" fill="#dfe4ea"/><path d="m139.11 277-.1.46 25.462 5.781 18.292-27.034z" fill="#8d9299"/><path d="m271 121.842-15-22.842-116.89 178 43.654-20.793z" fill="#b4babf"/><path d="m11 248.045 84.99 164.955 160.01-108.98z" fill="#dfe4ea"/><path d="m45.003 255.814-34.003-7.769 84.99 164.955 22.207-15.125z" fill="#b4babf"/><g id="_Path_3" data-name=" Path 3"><path d="m172.608 397.34h-2.208a6 6 0 0 1 0-12h2.212a6 6 0 0 1 0 12z" fill="#f4f8fc"/></g><g id="_Path_3-2" data-name=" Path 3-2"><path d="m284.137 397.34h-89.358a6 6 0 1 1 0-12h89.358a6 6 0 0 1 0 12z" fill="#f4f8fc"/></g></svg>